<svg xmlns="http://www.w3.org/2000/svg" width="960" height="920" viewBox="0 0 960 920" role="img"><title>Dalla politica alla coscienza</title><defs><marker id="a" markerWidth="8" markerHeight="8" refX="6" refY="3" orient="auto"><path d="M0 0L6 3L0 6" fill="none" stroke="#be914b" stroke-width="1.5"/></marker></defs><rect width="960" height="920" rx="24" fill="#061d2f"/><text x="480" y="52" text-anchor="middle" fill="#deb570" font-family="sans-serif" font-size="15" letter-spacing="3">ALFIERI · MAPPA CONCETTUALE</text><text x="480" y="105" text-anchor="middle" fill="#fff6df" font-family="Georgia,serif" font-size="32">Dalla politica alla coscienza</text><path d="M420 230H535" stroke="#be914b" stroke-width="3" fill="none" marker-end="url(#a)"/><text x="480" y="191" text-anchor="middle" fill="#f1d5a0" font-family="sans-serif" font-size="13">dialoga con</text><path d="M720 280V425" stroke="#be914b" stroke-width="3" fill="none" marker-end="url(#a)"/><rect x="632" y="332" width="176" height="58" fill="#061d2f"/><text x="720" y="350" text-anchor="middle" fill="#f1d5a0" font-family="sans-serif" font-size="13">si confronta</text><text x="720" y="368" text-anchor="middle" fill="#f1d5a0" font-family="sans-serif" font-size="13">con</text><path d="M540 480H425" stroke="#be914b" stroke-width="3" fill="none" marker-end="url(#a)"/><text x="480" y="441" text-anchor="middle" fill="#f1d5a0" font-family="sans-serif" font-size="13">anticipano il</text><text x="480" y="459" text-anchor="middle" fill="#f1d5a0" font-family="sans-serif" font-size="13">conflitto di</text><path d="M240 530V675" stroke="#be914b" stroke-width="3" fill="none" marker-end="url(#a)"/><rect x="152" y="582" width="176" height="58" fill="#061d2f"/><text x="240" y="600" text-anchor="middle" fill="#f1d5a0" font-family="sans-serif" font-size="13">si confronta</text><text x="240" y="618" text-anchor="middle" fill="#f1d5a0" font-family="sans-serif" font-size="13">con</text><path d="M420 730H535" stroke="#be914b" stroke-width="3" fill="none" marker-end="url(#a)"/><text x="480" y="691" text-anchor="middle" fill="#f1d5a0" font-family="sans-serif" font-size="13">dialoga con</text><rect x="60" y="180" width="360" height="100" rx="14" fill="#fff6df" stroke="#be914b" stroke-width="2"/><text x="80" y="206" fill="#846038" font-family="sans-serif" font-size="14">01</text><text x="240" y="228" text-anchor="middle" fill="#061d2f" font-family="Georgia,serif" font-size="22">Della tirannide</text><rect x="540" y="180" width="360" height="100" rx="14" fill="#fff6df" stroke="#be914b" stroke-width="2"/><text x="560" y="206" fill="#846038" font-family="sans-serif" font-size="14">02</text><text x="720" y="228" text-anchor="middle" fill="#061d2f" font-family="Georgia,serif" font-size="22">Del principe e delle</text><text x="720" y="254" text-anchor="middle" fill="#061d2f" font-family="Georgia,serif" font-size="22">lettere</text><rect x="540" y="430" width="360" height="100" rx="14" fill="#fff6df" stroke="#be914b" stroke-width="2"/><text x="560" y="456" fill="#846038" font-family="sans-serif" font-size="14">03</text><text x="720" y="478" text-anchor="middle" fill="#061d2f" font-family="Georgia,serif" font-size="22">Filippo e tragedie</text><text x="720" y="504" text-anchor="middle" fill="#061d2f" font-family="Georgia,serif" font-size="22">politiche</text><rect x="60" y="430" width="360" height="100" rx="14" fill="#fff6df" stroke="#be914b" stroke-width="2"/><text x="80" y="456" fill="#846038" font-family="sans-serif" font-size="14">04</text><text x="240" y="478" text-anchor="middle" fill="#061d2f" font-family="Georgia,serif" font-size="22">Saul: il re diviso</text><rect x="60" y="680" width="360" height="100" rx="14" fill="#fff6df" stroke="#be914b" stroke-width="2"/><text x="80" y="706" fill="#846038" font-family="sans-serif" font-size="14">05</text><text x="240" y="728" text-anchor="middle" fill="#061d2f" font-family="Georgia,serif" font-size="22">Mirra: il desiderio</text><text x="240" y="754" text-anchor="middle" fill="#061d2f" font-family="Georgia,serif" font-size="22">taciuto</text><rect x="540" y="680" width="360" height="100" rx="14" fill="#fff6df" stroke="#be914b" stroke-width="2"/><text x="560" y="706" fill="#846038" font-family="sans-serif" font-size="14">06</text><text x="720" y="728" text-anchor="middle" fill="#061d2f" font-family="Georgia,serif" font-size="22">Vita e Rime: costruire</text><text x="720" y="754" text-anchor="middle" fill="#061d2f" font-family="Georgia,serif" font-size="22">l’io</text><text x="480" y="864" text-anchor="middle" fill="#eed2a2" font-family="sans-serif" font-size="17">Segui i numeri e spiega il nesso indicato su ogni freccia.</text></svg>