<svg xmlns="http://www.w3.org/2000/svg" viewBox="0 0 1200 760"><rect width="1200" height="760" fill="#f4efe8"/><path d="M90 230l180-92 170 50 95-80 185 35 155-58 210 105-45 235-180 55-125 132-180-70-158 52-170-95z" fill="#dcd5ca" stroke="#655d72" stroke-width="5"/><g fill="#9e4454" stroke="#fff" stroke-width="6"><circle cx="355" cy="375" r="24"/><circle cx="485" cy="455" r="24"/><circle cx="510" cy="260" r="24"/><circle cx="350" cy="175" r="24"/><circle cx="610" cy="280" r="24"/></g><g fill="none" stroke="#d3a956" stroke-width="9" stroke-dasharray="15 12"><path d="M355 375L485 455L510 260L350 175L610 280L485 455"/></g><g font-family="system-ui" font-size="25" font-weight="800" fill="#29213c"><text x="255" y="415">Parigi</text><text x="445" y="510">Marsiglia</text><text x="525" y="250">Ginevra</text><text x="280" y="150">Londra</text><text x="630" y="275">Bruxelles</text><text x="70" y="90">Esilio = stampa + relazioni + finanziamenti</text></g></svg>
