<svg xmlns="http://www.w3.org/2000/svg" viewBox="0 0 400 500" role="img" aria-label="Ritratto didattico originale di Aleksandr Gorčakov"><rect width="400" height="500" fill="#4e5868"/><circle cx="200" cy="170" r="92" fill="#d1b17e"/><path d="M110 168q7-90 90-106 77 10 91 82l-36-20-92 25-23 33z M142 235q58 32 116 0-11 59-58 59s-47-59-58-59z" fill="#f0f0ea"/><path d="M78 500c8-130 47-208 122-208s114 78 122 208" fill="#39485d"/><path d="M165 297l35 37 35-37 25 203H140z" fill="#f2ead8"/><path d="M184 332h32l12 168h-56z" fill="#9d4938"/><circle cx="168" cy="183" r="6"/><circle cx="232" cy="183" r="6"/><path d="M166 232q34 24 68 0" fill="none" stroke="#5a4637" stroke-width="7"/><text x="30" y="455" fill="#fff" opacity=".16" font-family="Georgia" font-size="130" font-weight="700">AG</text><text x="200" y="480" fill="#fff" font-family="system-ui" text-anchor="middle" font-size="17" letter-spacing="2">ALEKSANDR GORČAKOV</text></svg>
