<svg xmlns="http://www.w3.org/2000/svg" viewBox="0 0 1600 1000" role="img" aria-labelledby="t d">
  <title id="t">Costruire lo Stato italiano, 1861-1876</title><desc id="d">Composizione originale con carta d'Italia, registri amministrativi, timbri e linee di bilancio</desc>
  <defs><linearGradient id="g" x2="1" y2="1"><stop stop-color="#172820"/><stop offset="1" stop-color="#4d6357"/></linearGradient><filter id="s"><feDropShadow dx="0" dy="18" stdDeviation="22" flood-opacity=".38"/></filter></defs>
  <rect width="1600" height="1000" fill="url(#g)"/>
  <g opacity=".1" stroke="#fff"><path d="M0 125h1600M0 250h1600M0 375h1600M0 500h1600M0 625h1600M0 750h1600M0 875h1600"/><path d="M200 0v1000M400 0v1000M600 0v1000M800 0v1000M1000 0v1000M1200 0v1000M1400 0v1000"/></g>
  <g transform="translate(975 82) scale(1.08)" filter="url(#s)"><path d="M150 0l126 36 57 140-27 127 94 149-70 83-119-138-89-110-59-139z" fill="#f0e4cb" stroke="#ba9554" stroke-width="10"/><path d="M111 550l143-35 152 49-62 76-195 9z" fill="#f0e4cb" stroke="#ba9554" stroke-width="10"/><path d="M147 58h121M113 169h202M150 280h176M202 390h125" stroke="#8f493c" stroke-width="9" opacity=".74"/><g fill="#ba9554" stroke="#293a32" stroke-width="7"><circle cx="147" cy="58" r="16"/><circle cx="269" cy="58" r="16"/><circle cx="113" cy="169" r="16"/><circle cx="315" cy="169" r="16"/><circle cx="150" cy="280" r="16"/><circle cx="327" cy="390" r="16"/></g></g>
  <g transform="translate(855 675) rotate(-7)" opacity=".88"><rect width="430" height="170" rx="12" fill="none" stroke="#d4b06a" stroke-width="5"/><text x="215" y="70" text-anchor="middle" fill="#d4b06a" font-family="Georgia,serif" font-size="28">REGNO D'ITALIA</text><text x="215" y="112" text-anchor="middle" fill="#f0e4cb" font-family="system-ui" font-size="22" font-weight="800" letter-spacing="5">AMMINISTRAZIONE</text><path d="M45 136h340" stroke="#d4b06a" stroke-width="3"/></g>
  <g font-family="Georgia,serif" fill="#fff" opacity=".11"><text x="70" y="170" font-size="130">1861</text><text x="66" y="905" font-size="190">1876</text></g>
  <path d="M160 510H760" stroke="#ba9554" stroke-width="5"/><g fill="#ba9554"><circle cx="160" cy="510" r="12"/><circle cx="360" cy="510" r="12"/><circle cx="560" cy="510" r="12"/><circle cx="760" cy="510" r="12"/></g>
</svg>
