<svg xmlns="http://www.w3.org/2000/svg" viewBox="0 0 1200 760"><rect width="1200" height="760" fill="#f4efe3"/><path d="M105 235l135-72 128 27 87-77 180 34 108-61 224 60 100 166-73 147-153 54-87 102-178-42-117 65-162-75-137-132z" fill="#d9d1c0" stroke="#677a78" stroke-width="5"/><g font-family="system-ui" font-weight="800" text-anchor="middle"><circle cx="430" cy="340" r="70" fill="#438464"/><text x="430" y="335" fill="white" font-size="28">FRANCIA</text><text x="430" y="370" fill="white" font-size="20">nuovo regime</text><circle cx="505" cy="255" r="53" fill="#438464"/><text x="505" y="262" fill="white" font-size="22">BELGIO</text><circle cx="785" cy="255" r="62" fill="#a8453d"/><text x="785" y="250" fill="white" font-size="25">POLONIA</text><text x="785" y="280" fill="white" font-size="18">repressa</text><circle cx="640" cy="485" r="62" fill="#a8453d"/><text x="640" y="480" fill="white" font-size="25">ITALIA</text><text x="640" y="510" fill="white" font-size="18">repressa</text></g><g font-family="system-ui" font-size="24" fill="#172c33"><text x="70" y="90">Gli esiti seguono anche gli interessi delle potenze</text><rect x="825" y="590" width="34" height="34" rx="17" fill="#438464"/><text x="875" y="616">consolidamento</text><rect x="825" y="640" width="34" height="34" rx="17" fill="#a8453d"/><text x="875" y="666">repressione</text></g></svg>
